<svg xmlns="http://www.w3.org/2000/svg" viewBox="0 0 221 68" width="221" height="68" role="img" aria-label="Lumen" xmlns:c2pa="http://c2pa.org/manifest"><metadata><c2pa:manifest>AAAWgmp1bWIAAAAeanVtZGMycGEAEQAQgAAAqgA4m3EDYzJwYQAAABZcanVtYgAAAEdqdW1kYzJtYQARABCAAACqADibcQN1cm46YzJwYTpmOWEwMzUwOS1mN2JiLTQ1MmEtYWY2MS05OTYzY2Q2OWI2MGMAAAADl2p1bWIAAAApanVtZGMyYXMAEQAQgAAAqgA4m3EDYzJwYS5hc3NlcnRpb25zAAAAALxqdW1iAAAARGp1bWRjYm9yABEAEIAAAKoAOJtxE2MycGEuaW5ncmVkaWVudC52MwAAAAAYYzJzaHS3Ni7VTZg9do8Yn6LR58sAAABwY2JvcqNpZGM6Zm9ybWF0bWltYWdlL3N2Zyt4bWxqaW5zdGFuY2VJRHgseG1wOmlpZDo2ZTA3MjNkNi1lMmIzLTRjNzgtOWJiZS00ZjUwYzM3NzM2ZDRscmVsYXRpb25zaGlwaHBhcmVudE9mAAAB4mp1bWIAAABBanVtZGNib3IAEQAQgAAAqgA4m3ETYzJwYS5hY3Rpb25zLnYyAAAAABhjMnNofaTRnivOY1MDBmA7+5ve9QAAAZljYm9yomdhY3Rpb25zgqJmYWN0aW9ua2MycGEub3BlbmVkanBhcmFtZXRlcnOha2luZ3JlZGllbnRzgaJjdXJseC1zZWxmI2p1bWJmPWMycGEuYXNzZXJ0aW9ucy9jMnBhLmluZ3JlZGllbnQudjNkaGFzaFggSeGZNrbfNZdQ5XcomsxqgwF6S2rJ8aZn0NjOtc9unsmkZmFjdGlvbngdY29tLmFudGhyb3BpYy5jbGF1ZGUucHJvdmlkZWRqcGFyYW1ldGVyc6F4H2NvbS5hbnRocm9waWMub3JpZ2luLWNvbmZpZGVuY2VndW5rbm93bmtkZXNjcmlwdGlvbnhmQ2xhdWRlIHByb3ZpZGVkIHRoaXMgZmlsZSBhdCB0aGUgcmVxdWVzdCBvZiBhIHVzZXIgYW5kIG1heSBoYXZlIGNyZWF0ZWQgb3IgbW9kaWZpZWQgdGhlIGZpbGUgY29udGVudHMubXNvZnR3YXJlQWdlbnShZG5hbWVmQ2xhdWRlcmFsbEFjdGlvbnNJbmNsdWRlZPUAAADIanVtYgAAAEBqdW1kY2JvcgARABCAAACqADibcRNjMnBhLmhhc2guZGF0YQAAAAAYYzJzaEIujWjPlJ1uXpZVbUMlWmsAAACAY2JvcqVjYWxnZnNoYTI1NmNwYWRNAAAAAAAAAAAAAAAAAGRoYXNoWCA8I83hM0uTiWXd3qtlB/N2dcnOgrWiFxQ9VGkhfPEgNWRuYW1lbmp1bWJmIG1hbmlmZXN0amV4Y2x1c2lvbnOBomVzdGFydBiyZmxlbmd0aBkeBAAAAj5qdW1iAAAAJ2p1bWRjMmNsABEAEIAAAKoAOJtxA2MycGEuY2xhaW0udjIAAAACD2Nib3KlY2FsZ2ZzaGEyNTZpc2lnbmF0dXJleE1zZWxmI2p1bWJmPS9jMnBhL3VybjpjMnBhOmY5YTAzNTA5LWY3YmItNDUyYS1hZjYxLTk5NjNjZDY5YjYwYy9jMnBhLnNpZ25hdHVyZWppbnN0YW5jZUlEeCx4bXA6aWlkOjc3ZjlmMjk5LTMxMGYtNGQwYS05MTQwLWI4ZGM3MmZhNjRjMnJjcmVhdGVkX2Fzc2VydGlvbnODomN1cmx4LXNlbGYjanVtYmY9YzJwYS5hc3NlcnRpb25zL2MycGEuaW5ncmVkaWVudC52M2RoYXNoWCBJ4Zk2tt81l1DldyiazGqDAXpLasnxpmfQ2M61z26eyaJjdXJseCpzZWxmI2p1bWJmPWMycGEuYXNzZXJ0aW9ucy9jMnBhLmFjdGlvbnMudjJkaGFzaFggFHVMNaXPixbqeXRaGNp5mVSWkBgSh6giE7N0WzCmdyiiY3VybHgpc2VsZiNqdW1iZj1jMnBhLmFzc2VydGlvbnMvYzJwYS5oYXNoLmRhdGFkaGFzaFgg3hoZlSbcIk4aG75g76AUX3Hwf/z04Jj+r8nO0dyDLGV0Y2xhaW1fZ2VuZXJhdG9yX2luZm+jZG5hbWVvQW50aHJvcGljIEZpbGVzZ3ZlcnNpb25lMS4wLjBrc3BlY1ZlcnNpb25lMi40LjAAABA4anVtYgAAAChqdW1kYzJjcwARABCAAACqADibcQNjMnBhLnNpZ25hdHVyZQAAABAIY2JvctKEWQISogEmGCFZAgowggIGMIIBjaADAgECAhRA5aAK7sI50L64g/oGQgU9Z1UTADAKBggqhkjOPQQDAzBJMRcwFQYDVQQKEw5BbnRocm9waWMsIFBCQzEuMCwGA1UEAxMlQW50aHJvcGljIENvbnRlbnQgQ3JlZGVudGlhbHMgUm9vdCBDQTAeFw0yNjA4MDcxODQzNTZaFw0yODA4MDYxOTQzNTZaMEQxFzAVBgNVBAoTDkFudGhyb3BpYywgUEJDMSkwJwYDVQQDEyBBbnRocm9waWMgQ2xhdWRlIENvbnRlbnQgU2lnbmluZzBZMBMGByqGSM49AgEGCCqGSM49AwEHA0IABJh6CmvLUBgFFNU0vUKlOVtE6djd17L5SuwX0LemFisBM3dkd/3cyjxFA3Qo5S46fX0/ihY0VZ7mfb9KF703t5OjWDBWMA4GA1UdDwEB/wQEAwIHgDAVBgNVHSUEDjAMBgorBgEEAYPoXgIBMAwGA1UdEwEB/wQCMAAwHwYDVR0jBBgwFoAUzlHiBIFOZFsj+OPEz5o+nMHXXMIwCgYIKoZIzj0EAwMDZwAwZAIwMXMdFJ4BetLLVY7ORuE9noqbbAZOZn/aArXyTwFAZfKrPzxF2vPoJNf1+UCdg1XGAjBwX1zd9WGqYkqmL5SFqw1QySjr1zJfpJM9+1rdDwSPLMOPOjKuiXjoU/pUUeG9RwmhY3BhZFkNngAAAAAAAAAAAAAAAAAAAAAAAAAAAAAAAAAAAAAAAAAAAAAAAAAAAAAAAAAAAAAAAAAAAAAAAAAAAAAAAAAAAAAAAAAAAAAAAAAAAAAAAAAAAAAAAAAAAAAAAAAAAAAAAAAAAAAAAAAAAAAAAAAAAAAAAAAAAAAAAAAAAAAAAAAAAAAAAAAAAAAAAAAAAAAAAAAAAAAAAAAAAAAAAAAAAAAAAAAAAAAAAAAAAAAAAAAAAAAAAAAAAAAAAAAAAAAAAAAAAAAAAAAAAAAAAAAAAAAAAAAAAAAAAAAAAAAAAAAAAAAAAAAAAAAAAAAAAAAAAAAAAAAAAAAAAAAAAAAAAAAAAAAAAAAAAAAAAAAAAAAAAAAAAAAAAAAAAAAAAAAAAAAAAAAAAAAAAAAAAAAAAAAAAAAAAAAAAAAAAAAAAAAAAAAAAAAAAAAAAAAAAAAAAAAAAAAAAAAAAAAAAAAAAAAAAAAAAAAAAAAAAAAAAAAAAAAAAAAAAAAAAAAAAAAAAAAAAAAAAAAAAAAAAAAAAAAAAAAAAAAAAAAAAAAAAAAAAAAAAAAAAAAAAAAAAAAAAAAAAAAAAAAAAAAAAAAAAAAAAAAAAAAAAAAAAAAAAAAAAAAAAAAAAAAAAAAAAAAAAAAAAAAAAAAAAAAAAAAAAAAAAAAAAAAAAAAAAAAAAAAAAAAAAAAAAAAAAAAAAAAAAAAAAAAAAAAAAAAAAAAAAAAAAAAAAAAAAAAAAAAAAAAAAAAAAAAAAAAAAAAAAAAAAAAAAAAAAAAAAAAAAAAAAAAAAAAAAAAAAAAAAAAAAAAAAAAAAAAAAAAAAAAAAAAAAAAAAAAAAAAAAAAAAAAAAAAAAAAAAAAAAAAAAAAAAAAAAAAAAAAAAAAAAAAAAAAAAAAAAAAAAAAAAAAAAAAAAAAAAAAAAAAAAAAAAAAAAAAAAAAAAAAAAAAAAAAAAAAAAAAAAAAAAAAAAAAAAAAAAAAAAAAAAAAAAAAAAAAAAAAAAAAAAAAAAAAAAAAAAAAAAAAAAAAAAAAAAAAAAAAAAAAAAAAAAAAAAAAAAAAAAAAAAAAAAAAAAAAAAAAAAAAAAAAAAAAAAAAAAAAAAAAAAAAAAAAAAAAAAAAAAAAAAAAAAAAAAAAAAAAAAAAAAAAAAAAAAAAAAAAAAAAAAAAAAAAAAAAAAAAAAAAAAAAAAAAAAAAAAAAAAAAAAAAAAAAAAAAAAAAAAAAAAAAAAAAAAAAAAAAAAAAAAAAAAAAAAAAAAAAAAAAAAAAAAAAAAAAAAAAAAAAAAAAAAAAAAAAAAAAAAAAAAAAAAAAAAAAAAAAAAAAAAAAAAAAAAAAAAAAAAAAAAAAAAAAAAAAAAAAAAAAAAAAAAAAAAAAAAAAAAAAAAAAAAAAAAAAAAAAAAAAAAAAAAAAAAAAAAAAAAAAAAAAAAAAAAAAAAAAAAAAAAAAAAAAAAAAAAAAAAAAAAAAAAAAAAAAAAAAAAAAAAAAAAAAAAAAAAAAAAAAAAAAAAAAAAAAAAAAAAAAAAAAAAAAAAAAAAAAAAAAAAAAAAAAAAAAAAAAAAAAAAAAAAAAAAAAAAAAAAAAAAAAAAAAAAAAAAAAAAAAAAAAAAAAAAAAAAAAAAAAAAAAAAAAAAAAAAAAAAAAAAAAAAAAAAAAAAAAAAAAAAAAAAAAAAAAAAAAAAAAAAAAAAAAAAAAAAAAAAAAAAAAAAAAAAAAAAAAAAAAAAAAAAAAAAAAAAAAAAAAAAAAAAAAAAAAAAAAAAAAAAAAAAAAAAAAAAAAAAAAAAAAAAAAAAAAAAAAAAAAAAAAAAAAAAAAAAAAAAAAAAAAAAAAAAAAAAAAAAAAAAAAAAAAAAAAAAAAAAAAAAAAAAAAAAAAAAAAAAAAAAAAAAAAAAAAAAAAAAAAAAAAAAAAAAAAAAAAAAAAAAAAAAAAAAAAAAAAAAAAAAAAAAAAAAAAAAAAAAAAAAAAAAAAAAAAAAAAAAAAAAAAAAAAAAAAAAAAAAAAAAAAAAAAAAAAAAAAAAAAAAAAAAAAAAAAAAAAAAAAAAAAAAAAAAAAAAAAAAAAAAAAAAAAAAAAAAAAAAAAAAAAAAAAAAAAAAAAAAAAAAAAAAAAAAAAAAAAAAAAAAAAAAAAAAAAAAAAAAAAAAAAAAAAAAAAAAAAAAAAAAAAAAAAAAAAAAAAAAAAAAAAAAAAAAAAAAAAAAAAAAAAAAAAAAAAAAAAAAAAAAAAAAAAAAAAAAAAAAAAAAAAAAAAAAAAAAAAAAAAAAAAAAAAAAAAAAAAAAAAAAAAAAAAAAAAAAAAAAAAAAAAAAAAAAAAAAAAAAAAAAAAAAAAAAAAAAAAAAAAAAAAAAAAAAAAAAAAAAAAAAAAAAAAAAAAAAAAAAAAAAAAAAAAAAAAAAAAAAAAAAAAAAAAAAAAAAAAAAAAAAAAAAAAAAAAAAAAAAAAAAAAAAAAAAAAAAAAAAAAAAAAAAAAAAAAAAAAAAAAAAAAAAAAAAAAAAAAAAAAAAAAAAAAAAAAAAAAAAAAAAAAAAAAAAAAAAAAAAAAAAAAAAAAAAAAAAAAAAAAAAAAAAAAAAAAAAAAAAAAAAAAAAAAAAAAAAAAAAAAAAAAAAAAAAAAAAAAAAAAAAAAAAAAAAAAAAAAAAAAAAAAAAAAAAAAAAAAAAAAAAAAAAAAAAAAAAAAAAAAAAAAAAAAAAAAAAAAAAAAAAAAAAAAAAAAAAAAAAAAAAAAAAAAAAAAAAAAAAAAAAAAAAAAAAAAAAAAAAAAAAAAAAAAAAAAAAAAAAAAAAAAAAAAAAAAAAAAAAAAAAAAAAAAAAAAAAAAAAAAAAAAAAAAAAAAAAAAAAAAAAAAAAAAAAAAAAAAAAAAAAAAAAAAAAAAAAAAAAAAAAAAAAAAAAAAAAAAAAAAAAAAAAAAAAAAAAAAAAAAAAAAAAAAAAAAAAAAAAAAAAAAAAAAAAAAAAAAAAAAAAAAAAAAAAAAAAAAAAAAAAAAAAAAAAAAAAAAAAAAAAAAAAAAAAAAAAAAAAAAAAAAAAAAAAAAAAAAAAAAAAAAAAAAAAAAAAAAAAAAAAAAAAAAAAAAAAAAAAAAAAAAAAAAAAAAAAAAAAAAAAAAAAAAAAAAAAAAAAAAAAAAAAAAAAAAAAAAAAAAAAAAAAAAAAAAAAAAAAAAAAAAAAAAAAAAAAAAAAAAAAAAAAAAAAAAAAAAAAAAAAAAAAAAAAAAAAAAAAAAAAAAAAAAAAAAAAAAAAAAAAAAAAAAAAAAAAAAAAAAAAAAAAAAAAAAAAAAAAAAAAAAAAAAAAAAAAAAAAAAAAAAAAAAAAAAAAAAAAAAAAAAAAAAAAAAAAAAAAAAAAAAAAAAAAAAAAAAAAAAAAAAAAAAAAAAAAAAAAAAAAAAAAAAAAAAAAAAAAAAAAAAAAAAAAAAAAAAAAAAAAAAAAAAAAAAAAAAAAAAAAAAAAAAAAAAAAAAAAAAAAAAAAAAAAAAAAAAAAAAAAAAAAAAAAAAAAAAAAAAAAAAAAAAAAAAAAAAAAAAAAAAAAAAAAAAAAAAAAAAAAAAAAAAAAAAAAAAAAAAAAAAAAAAAAAAAAAAAAAAAAAAAAAAAAAAAAAAAAAAAAAAAAAAAAAAAAAAAAAAAAAAAAAAAAAAAAAAAAAAAAAAAAAAAAAAAAAAAAAAAAAAAAAAAAAAAAAAAAAAAAAAAAAAAAAAAAAAAAAAAAAAAAAAAAAAAAAAAAAAAAAAAAAAAAAAAAAAAAAAAAAAAAAAAAAAAAAAAAAAAAAAAAAAAAAAAAAAAAAAAAAAAAAAAAAAAAAAAAAAAAAAAAAAAAAAAAAAAAAAAAAAAAAAAAAAAAAAAAAAAAAAAAAAAAAAAAAAAAAAAAAAAAAAAAAAAAAAAAAAAAAAAAAAAAAAAAAAAAAAAAAAAAAAAAAAAAAAAAAAAAAAAAAAAAAAAAAAAAAAAAAAAAAAAAAAAAAAAAAAAAAAAAAAAAAAAAAAAAAAAAAAAAAAAAAAAAAAAAAAAAAAAAAAAAAAAAAAAAAAAAAAAAAAAAAAAAAAAAAAAAAAAAAAAAAAAAAAAAAAAAAAAAAAAAAAAAAAAAAAAAAAAAAAAAAAAAAAAAAAAAAAAAAAAAAAAAAAAAAAAAAAAAAAAAAAAAAAAAAAAAAAAAAAAAAAAAAAAAAAAAAAAAAAAAAAAAAAAAAAAAAAAAAAAAAAAAAAAAAAAAAAAAAAAAAAAAAAAAAAAAAAAAAAAAAAAAAAAAAAAAAAAAAAAAAAAAAAAAAAAAAAAAAAAAAAAAAAAAAAAAAAAAAAAAAAAAAAAAAAAAAAAAAAAAAAAAAAAAAAAAAAAAAAAAAAAAAAAAAAAAAAAAAAAAAAAAAAAAAAAAAAAAAAAAAAAAAAAAAAAAAAAAAAAAAAAAAAAAAAAAAAAAAAAAAAAAAAAAAAAAAAAAAAAAAAAAAAAAAAAAAAAAAAAAAAAAAAAAAAAAAAAAAAAAAAAAAAAAAAAAAAAAAAAAAAAAAAAAAAAAAAAAAAAAAAAAAAAAAAAAAAAAAAAAAAAAAAAAAAAAAAAAAAAAAAAAAAAAAAAAAAAAAAAAAAAAAAAAAAAAAAAAAAAAAAAAAAAAAAAAAAAAAAAAAAAAAAAAAAAAAAAAAAAAAAAAAAAAAAAAPZYQFX2OsweHidwnI6PXE7b9wUJtquhD3pD67ig0dQrLq11xNIvw7P/hZg1jBrWyXWhoeJ/yc664U5ITM4UPMSUiCE=</c2pa:manifest></metadata><title>Lumen</title><rect width="221" height="68" fill="#F5F0E8"/><path d="M9.92 -0.72H11.88Q14 -0.72 15.46 -2.08Q16.92 -3.44 17.52 -5.8Q17.52 -5.88 17.76 -5.86Q18 -5.84 18 -5.76Q17.72 -3.84 17.72 -0.6Q17.72 -0.28 17.58 -0.14Q17.44 0 17.08 0H1.32Q1.24 0 1.24 -0.24Q1.24 -0.48 1.32 -0.48Q2.56 -0.48 3.12 -0.68Q3.68 -0.88 3.88 -1.46Q4.08 -2.04 4.08 -3.24V-15.48Q4.08 -16.68 3.88 -17.24Q3.68 -17.8 3.1 -18.02Q2.52 -18.24 1.32 -18.24Q1.24 -18.24 1.24 -18.48Q1.24 -18.72 1.32 -18.72L3.16 -18.68Q4.76 -18.6 5.64 -18.6Q6.6 -18.6 8.2 -18.68L9.96 -18.72Q10.04 -18.72 10.04 -18.48Q10.04 -18.24 9.96 -18.24Q8.68 -18.24 8.08 -18.02Q7.48 -17.8 7.26 -17.22Q7.04 -16.64 7.04 -15.44V-3.4Q7.04 -2.28 7.26 -1.72Q7.48 -1.16 8.08 -0.94Q8.68 -0.72 9.92 -0.72Z M47 -18.24Q46.88 -18.24 46.88 -18.48Q46.88 -18.72 47 -18.72L48.56 -18.68Q49.84 -18.6 50.6 -18.6Q51.2 -18.6 52.4 -18.68L53.92 -18.72Q54 -18.72 54 -18.48Q54 -18.24 53.92 -18.24Q52.32 -18.24 51.7 -17.44Q51.08 -16.64 51.08 -14.6V-7.36Q51.08 -3.64 49 -1.56Q46.92 0.52 43.44 0.52Q41.2 0.52 39.34 -0.38Q37.48 -1.28 36.38 -2.96Q35.28 -4.64 35.28 -6.96V-15.48Q35.28 -16.68 35.08 -17.24Q34.88 -17.8 34.28 -18.02Q33.68 -18.24 32.44 -18.24Q32.32 -18.24 32.32 -18.48Q32.32 -18.72 32.44 -18.72L34.28 -18.68Q35.72 -18.6 36.64 -18.6Q37.68 -18.6 39.2 -18.68L41 -18.72Q41.08 -18.72 41.08 -18.48Q41.08 -18.24 41 -18.24Q39.76 -18.24 39.16 -18Q38.56 -17.76 38.34 -17.18Q38.12 -16.6 38.12 -15.4V-8Q38.12 -4.36 39.9 -2.6Q41.68 -0.84 44.44 -0.84Q47.12 -0.84 48.66 -2.5Q50.2 -4.16 50.2 -7.28V-14.6Q50.2 -16.64 49.5 -17.44Q48.8 -18.24 47 -18.24Z M71.64 -17.84 72.44 -17.72 72.08 -4.56Q72.04 -2.36 72.66 -1.42Q73.28 -0.48 74.8 -0.48Q74.92 -0.48 74.92 -0.24Q74.92 0 74.8 0Q73.92 0 73.44 -0.04L71.64 -0.08L69.88 -0.04Q69.36 0 68.4 0Q68.32 0 68.32 -0.24Q68.32 -0.48 68.4 -0.48Q69.88 -0.48 70.54 -1.42Q71.2 -2.36 71.28 -4.56ZM93.52 0Q92.4 0 91.76 -0.04L89.4 -0.08L86.68 -0.04Q86 0 84.8 0Q84.72 0 84.72 -0.24Q84.72 -0.48 84.8 -0.48Q86.16 -0.48 86.82 -0.7Q87.48 -0.92 87.7 -1.48Q87.92 -2.04 87.88 -3.24L87.28 -17.48L88.12 -18.24L80.64 -0.28Q80.56 -0.12 80.36 -0.12Q80.12 -0.12 80.04 -0.28L72.36 -15.4Q70.92 -18.24 68.64 -18.24Q68.56 -18.24 68.56 -18.48Q68.56 -18.72 68.64 -18.72L71.2 -18.68L73.28 -18.72Q73.8 -18.72 74.14 -18.34Q74.48 -17.96 75.16 -16.64L81.64 -3.84L80.32 -1.4L87.08 -17.72Q87.24 -18.16 87.6 -18.44Q87.96 -18.72 88.32 -18.72L90.52 -18.68L93.32 -18.72Q93.4 -18.72 93.4 -18.48Q93.4 -18.24 93.32 -18.24Q91.64 -18.24 90.94 -17.7Q90.24 -17.16 90.32 -15.56L90.84 -3.24Q90.92 -2 91.12 -1.44Q91.32 -0.88 91.84 -0.68Q92.36 -0.48 93.52 -0.48Q93.6 -0.48 93.6 -0.24Q93.6 0 93.52 0Z M108.8 -0.48Q110.08 -0.48 110.66 -0.68Q111.24 -0.88 111.46 -1.46Q111.68 -2.04 111.68 -3.24V-15.48Q111.68 -16.68 111.46 -17.24Q111.24 -17.8 110.64 -18.02Q110.04 -18.24 108.8 -18.24Q108.72 -18.24 108.72 -18.48Q108.72 -18.72 108.8 -18.72H122.88Q123.28 -18.72 123.28 -18.4L123.32 -15.92Q123.36 -15.16 123.36 -14Q123.36 -13.88 123.12 -13.88Q122.88 -13.88 122.88 -14Q122.52 -15.84 121.22 -17.02Q119.92 -18.2 118.24 -18.2H117.36Q116.16 -18.2 115.58 -17.98Q115 -17.76 114.8 -17.2Q114.6 -16.64 114.6 -15.44V-3.4Q114.6 -2.24 114.8 -1.66Q115 -1.08 115.58 -0.86Q116.16 -0.64 117.36 -0.64H118.84Q120.56 -0.64 122 -1.96Q123.44 -3.28 124 -5.32Q124.04 -5.44 124.26 -5.44Q124.48 -5.44 124.48 -5.32Q124.2 -2.44 124.2 -0.6Q124.2 -0.28 124.08 -0.14Q123.96 0 123.6 0H108.8Q108.72 0 108.72 -0.24Q108.72 -0.48 108.8 -0.48ZM113.36 -9.08V-10Q117.76 -10 119.4 -10.2Q121.04 -10.4 121.24 -10.4Q121.48 -10.4 121.48 -9.52Q121.48 -8.6 121.24 -8.6Q121.08 -8.6 119.44 -8.84Q117.8 -9.08 113.36 -9.08Z M142.72 -17.84 143.48 -17.72V-4.56Q143.48 -2.36 144.12 -1.42Q144.76 -0.48 146.28 -0.48Q146.4 -0.48 146.4 -0.24Q146.4 0 146.28 0Q145.4 0 144.92 -0.04L143.12 -0.08L141.36 -0.04Q140.84 0 139.88 0Q139.76 0 139.76 -0.24Q139.76 -0.48 139.88 -0.48Q141.4 -0.48 142.06 -1.42Q142.72 -2.36 142.72 -4.56ZM157.28 0.52 143.8 -15.44Q142.52 -16.96 141.58 -17.6Q140.64 -18.24 139.76 -18.24Q139.68 -18.24 139.68 -18.48Q139.68 -18.72 139.76 -18.72L142 -18.68Q142.4 -18.68 142.92 -18.7Q143.44 -18.72 144.6 -18.72Q144.92 -18.72 145.14 -18.52Q145.36 -18.32 145.72 -17.8Q145.88 -17.56 146.56 -16.64L157.32 -3.76L157.76 0.44Q157.76 0.52 157.56 0.56Q157.36 0.6 157.28 0.52ZM157.76 0.44 156.96 -0.8V-14.12Q156.96 -16.36 156.32 -17.3Q155.68 -18.24 154.16 -18.24Q154.08 -18.24 154.08 -18.48Q154.08 -18.72 154.16 -18.72L155.56 -18.68Q156.68 -18.6 157.32 -18.6Q158 -18.6 159.12 -18.68L160.64 -18.72Q160.72 -18.72 160.72 -18.48Q160.72 -18.24 160.64 -18.24Q159.12 -18.24 158.44 -17.28Q157.76 -16.32 157.76 -14.12Z" transform="translate(22 36.72)" fill="#1B1916"/><path d="M16 45.72 C67.24 51.72 138.32 51.72 195.56 40.72 C203.56 34.72 203.56 22.72 196.06 21.22 C190.06 20.22 188.56 27.72 193.56 28.72 C197.56 29.42 198.06 24.72 195.06 24.42" fill="none" stroke="#8C6C3A" stroke-width="1.25" stroke-linecap="round" stroke-linejoin="round"/></svg>
