<svg xmlns="http://www.w3.org/2000/svg" viewBox="0 0 320 400" width="320" height="400" role="img" aria-label="Placeholder: a pair of jhumkas"><title>Placeholder: a pair of jhumkas</title>
<rect width="320" height="400" fill="#F5F0E8"/><path d="M91.8 126 C90 112 114.5 108.5 111 126 C109.2 133 105.8 136.5 104 141.8 C93.5 141.8 93.5 159.2 104 159.2 C114.5 159.2 114.5 141.8 104 141.8 C104 150.5 104 161 104 169.8 C79.5 171.5 62 199.5 60.2 231 C60.2 245 62.3 252 67.5 252 C72.8 252 74.8 245 74.8 231 C74.8 245 76.9 252 82.1 252 C87.4 252 89.4 245 89.4 231 C89.4 245 91.5 252 96.7 252 C102 252 104 245 104 231 C104 245 106 252 111.3 252 C116.5 252 118.6 245 118.6 231 C118.6 245 120.6 252 125.9 252 C131.1 252 133.2 245 133.2 231 C133.2 245 135.2 252 140.5 252 C145.7 252 147.8 245 147.8 231 C146 199.5 128.5 171.5 104 169.8" fill="none" stroke="#A8844A" stroke-width="1.25" stroke-linecap="round" stroke-linejoin="round" vector-effect="non-scaling-stroke"/><path d="M203.8 126 C202 112 226.5 108.5 223 126 C221.2 133 217.8 136.5 216 141.8 C205.5 141.8 205.5 159.2 216 159.2 C226.5 159.2 226.5 141.8 216 141.8 C216 150.5 216 161 216 169.8 C191.5 171.5 174 199.5 172.2 231 C172.2 245 174.3 252 179.5 252 C184.8 252 186.8 245 186.8 231 C186.8 245 188.9 252 194.1 252 C199.4 252 201.4 245 201.4 231 C201.4 245 203.5 252 208.7 252 C214 252 216 245 216 231 C216 245 218 252 223.3 252 C228.5 252 230.6 245 230.6 231 C230.6 245 232.6 252 237.9 252 C243.1 252 245.2 245 245.2 231 C245.2 245 247.2 252 252.5 252 C257.7 252 259.8 245 259.8 231 C258 199.5 240.5 171.5 216 169.8" fill="none" stroke="#A8844A" stroke-width="1.25" stroke-linecap="round" stroke-linejoin="round" vector-effect="non-scaling-stroke"/>
</svg>
