<svg xmlns="http://www.w3.org/2000/svg" viewBox="0 0 320 400" width="320" height="400" role="img" aria-label="Placeholder: a cuff"><title>Placeholder: a cuff</title>
<rect width="320" height="400" fill="#F5F0E8"/><path d="M220 150C260 170 264 220 230 246C190 276 110 276 76 240C50 212 64 168 106 152M210 164C240 180 244 218 218 236C186 260 116 260 90 232C70 212 80 178 114 166M220 150C216 154 212 158 210 164M106 152C110 156 113 161 114 166M211.5 157a3.5 3.5 0 1 0 7 0a3.5 3.5 0 1 0 -7 0M106.5 159a3.5 3.5 0 1 0 7 0a3.5 3.5 0 1 0 -7 0M120 250C140 238 180 238 200 250" fill="none" stroke="#A8844A" stroke-width="1.25" stroke-linecap="round" stroke-linejoin="round" vector-effect="non-scaling-stroke"/>
</svg>
