<svg xmlns="http://www.w3.org/2000/svg" viewBox="0 0 256 256" width="256" height="256" role="img" aria-label="Jaali lattice tile (seamless, 256)" xmlns:c2pa="http://c2pa.org/manifest"><metadata><c2pa:manifest>AAAWgmp1bWIAAAAeanVtZGMycGEAEQAQgAAAqgA4m3EDYzJwYQAAABZcanVtYgAAAEdqdW1kYzJtYQARABCAAACqADibcQN1cm46YzJwYTo5YjhkNjRhNC02MzAwLTRjZjgtOTVmMS0yMGExZTZhNzNjODIAAAADl2p1bWIAAAApanVtZGMyYXMAEQAQgAAAqgA4m3EDYzJwYS5hc3NlcnRpb25zAAAAALxqdW1iAAAARGp1bWRjYm9yABEAEIAAAKoAOJtxE2MycGEuaW5ncmVkaWVudC52MwAAAAAYYzJzaNAnXeqLKWGJMVlW2rAl98YAAABwY2JvcqNpZGM6Zm9ybWF0bWltYWdlL3N2Zyt4bWxqaW5zdGFuY2VJRHgseG1wOmlpZDoxYzQwZDRmYS01Y2VmLTQwYzItYmI2ZC0yMTU2ZTAzNzRkODRscmVsYXRpb25zaGlwaHBhcmVudE9mAAAB4mp1bWIAAABBanVtZGNib3IAEQAQgAAAqgA4m3ETYzJwYS5hY3Rpb25zLnYyAAAAABhjMnNorSjo8/HOvDMc4a1M9Z/JuQAAAZljYm9yomdhY3Rpb25zgqJmYWN0aW9ua2MycGEub3BlbmVkanBhcmFtZXRlcnOha2luZ3JlZGllbnRzgaJjdXJseC1zZWxmI2p1bWJmPWMycGEuYXNzZXJ0aW9ucy9jMnBhLmluZ3JlZGllbnQudjNkaGFzaFggf6C/0DfElINhUbfi49C2YKr4AXSn7MiiVHRu54X2Z1SkZmFjdGlvbngdY29tLmFudGhyb3BpYy5jbGF1ZGUucHJvdmlkZWRqcGFyYW1ldGVyc6F4H2NvbS5hbnRocm9waWMub3JpZ2luLWNvbmZpZGVuY2VndW5rbm93bmtkZXNjcmlwdGlvbnhmQ2xhdWRlIHByb3ZpZGVkIHRoaXMgZmlsZSBhdCB0aGUgcmVxdWVzdCBvZiBhIHVzZXIgYW5kIG1heSBoYXZlIGNyZWF0ZWQgb3IgbW9kaWZpZWQgdGhlIGZpbGUgY29udGVudHMubXNvZnR3YXJlQWdlbnShZG5hbWVmQ2xhdWRlcmFsbEFjdGlvbnNJbmNsdWRlZPUAAADIanVtYgAAAEBqdW1kY2JvcgARABCAAACqADibcRNjMnBhLmhhc2guZGF0YQAAAAAYYzJzaNhIwobV9NZQ+tBL9+isrOMAAACAY2JvcqVjYWxnZnNoYTI1NmNwYWRNAAAAAAAAAAAAAAAAAGRoYXNoWCDhAbfqmhH3sLg5DYhKPY7vnBSyn25XWarFE2AVsCdtlWRuYW1lbmp1bWJmIG1hbmlmZXN0amV4Y2x1c2lvbnOBomVzdGFydBjRZmxlbmd0aBkeBAAAAj5qdW1iAAAAJ2p1bWRjMmNsABEAEIAAAKoAOJtxA2MycGEuY2xhaW0udjIAAAACD2Nib3KlY2FsZ2ZzaGEyNTZpc2lnbmF0dXJleE1zZWxmI2p1bWJmPS9jMnBhL3VybjpjMnBhOjliOGQ2NGE0LTYzMDAtNGNmOC05NWYxLTIwYTFlNmE3M2M4Mi9jMnBhLnNpZ25hdHVyZWppbnN0YW5jZUlEeCx4bXA6aWlkOjQ1ODZiYzU3LTAzMzktNGExOS1iZGNjLWZhZjZhYThkMzRhZHJjcmVhdGVkX2Fzc2VydGlvbnODomN1cmx4LXNlbGYjanVtYmY9YzJwYS5hc3NlcnRpb25zL2MycGEuaW5ncmVkaWVudC52M2RoYXNoWCB/oL/QN8SUg2FRt+Lj0LZgqvgBdKfsyKJUdG7nhfZnVKJjdXJseCpzZWxmI2p1bWJmPWMycGEuYXNzZXJ0aW9ucy9jMnBhLmFjdGlvbnMudjJkaGFzaFgg7V2eLDVGaD2lx2iWNeW75c8NBoxa9uJqALvgvOnYuqCiY3VybHgpc2VsZiNqdW1iZj1jMnBhLmFzc2VydGlvbnMvYzJwYS5oYXNoLmRhdGFkaGFzaFggH9VGQCDuKwfM7sjP7t0tB2rvq9YajGu/DrIX9FbTMj10Y2xhaW1fZ2VuZXJhdG9yX2luZm+jZG5hbWVvQW50aHJvcGljIEZpbGVzZ3ZlcnNpb25lMS4wLjBrc3BlY1ZlcnNpb25lMi40LjAAABA4anVtYgAAAChqdW1kYzJjcwARABCAAACqADibcQNjMnBhLnNpZ25hdHVyZQAAABAIY2JvctKEWQISogEmGCFZAgowggIGMIIBjaADAgECAhRA5aAK7sI50L64g/oGQgU9Z1UTADAKBggqhkjOPQQDAzBJMRcwFQYDVQQKEw5BbnRocm9waWMsIFBCQzEuMCwGA1UEAxMlQW50aHJvcGljIENvbnRlbnQgQ3JlZGVudGlhbHMgUm9vdCBDQTAeFw0yNjA4MDcxODQzNTZaFw0yODA4MDYxOTQzNTZaMEQxFzAVBgNVBAoTDkFudGhyb3BpYywgUEJDMSkwJwYDVQQDEyBBbnRocm9waWMgQ2xhdWRlIENvbnRlbnQgU2lnbmluZzBZMBMGByqGSM49AgEGCCqGSM49AwEHA0IABJh6CmvLUBgFFNU0vUKlOVtE6djd17L5SuwX0LemFisBM3dkd/3cyjxFA3Qo5S46fX0/ihY0VZ7mfb9KF703t5OjWDBWMA4GA1UdDwEB/wQEAwIHgDAVBgNVHSUEDjAMBgorBgEEAYPoXgIBMAwGA1UdEwEB/wQCMAAwHwYDVR0jBBgwFoAUzlHiBIFOZFsj+OPEz5o+nMHXXMIwCgYIKoZIzj0EAwMDZwAwZAIwMXMdFJ4BetLLVY7ORuE9noqbbAZOZn/aArXyTwFAZfKrPzxF2vPoJNf1+UCdg1XGAjBwX1zd9WGqYkqmL5SFqw1QySjr1zJfpJM9+1rdDwSPLMOPOjKuiXjoU/pUUeG9RwmhY3BhZFkNngAAAAAAAAAAAAAAAAAAAAAAAAAAAAAAAAAAAAAAAAAAAAAAAAAAAAAAAAAAAAAAAAAAAAAAAAAAAAAAAAAAAAAAAAAAAAAAAAAAAAAAAAAAAAAAAAAAAAAAAAAAAAAAAAAAAAAAAAAAAAAAAAAAAAAAAAAAAAAAAAAAAAAAAAAAAAAAAAAAAAAAAAAAAAAAAAAAAAAAAAAAAAAAAAAAAAAAAAAAAAAAAAAAAAAAAAAAAAAAAAAAAAAAAAAAAAAAAAAAAAAAAAAAAAAAAAAAAAAAAAAAAAAAAAAAAAAAAAAAAAAAAAAAAAAAAAAAAAAAAAAAAAAAAAAAAAAAAAAAAAAAAAAAAAAAAAAAAAAAAAAAAAAAAAAAAAAAAAAAAAAAAAAAAAAAAAAAAAAAAAAAAAAAAAAAAAAAAAAAAAAAAAAAAAAAAAAAAAAAAAAAAAAAAAAAAAAAAAAAAAAAAAAAAAAAAAAAAAAAAAAAAAAAAAAAAAAAAAAAAAAAAAAAAAAAAAAAAAAAAAAAAAAAAAAAAAAAAAAAAAAAAAAAAAAAAAAAAAAAAAAAAAAAAAAAAAAAAAAAAAAAAAAAAAAAAAAAAAAAAAAAAAAAAAAAAAAAAAAAAAAAAAAAAAAAAAAAAAAAAAAAAAAAAAAAAAAAAAAAAAAAAAAAAAAAAAAAAAAAAAAAAAAAAAAAAAAAAAAAAAAAAAAAAAAAAAAAAAAAAAAAAAAAAAAAAAAAAAAAAAAAAAAAAAAAAAAAAAAAAAAAAAAAAAAAAAAAAAAAAAAAAAAAAAAAAAAAAAAAAAAAAAAAAAAAAAAAAAAAAAAAAAAAAAAAAAAAAAAAAAAAAAAAAAAAAAAAAAAAAAAAAAAAAAAAAAAAAAAAAAAAAAAAAAAAAAAAAAAAAAAAAAAAAAAAAAAAAAAAAAAAAAAAAAAAAAAAAAAAAAAAAAAAAAAAAAAAAAAAAAAAAAAAAAAAAAAAAAAAAAAAAAAAAAAAAAAAAAAAAAAAAAAAAAAAAAAAAAAAAAAAAAAAAAAAAAAAAAAAAAAAAAAAAAAAAAAAAAAAAAAAAAAAAAAAAAAAAAAAAAAAAAAAAAAAAAAAAAAAAAAAAAAAAAAAAAAAAAAAAAAAAAAAAAAAAAAAAAAAAAAAAAAAAAAAAAAAAAAAAAAAAAAAAAAAAAAAAAAAAAAAAAAAAAAAAAAAAAAAAAAAAAAAAAAAAAAAAAAAAAAAAAAAAAAAAAAAAAAAAAAAAAAAAAAAAAAAAAAAAAAAAAAAAAAAAAAAAAAAAAAAAAAAAAAAAAAAAAAAAAAAAAAAAAAAAAAAAAAAAAAAAAAAAAAAAAAAAAAAAAAAAAAAAAAAAAAAAAAAAAAAAAAAAAAAAAAAAAAAAAAAAAAAAAAAAAAAAAAAAAAAAAAAAAAAAAAAAAAAAAAAAAAAAAAAAAAAAAAAAAAAAAAAAAAAAAAAAAAAAAAAAAAAAAAAAAAAAAAAAAAAAAAAAAAAAAAAAAAAAAAAAAAAAAAAAAAAAAAAAAAAAAAAAAAAAAAAAAAAAAAAAAAAAAAAAAAAAAAAAAAAAAAAAAAAAAAAAAAAAAAAAAAAAAAAAAAAAAAAAAAAAAAAAAAAAAAAAAAAAAAAAAAAAAAAAAAAAAAAAAAAAAAAAAAAAAAAAAAAAAAAAAAAAAAAAAAAAAAAAAAAAAAAAAAAAAAAAAAAAAAAAAAAAAAAAAAAAAAAAAAAAAAAAAAAAAAAAAAAAAAAAAAAAAAAAAAAAAAAAAAAAAAAAAAAAAAAAAAAAAAAAAAAAAAAAAAAAAAAAAAAAAAAAAAAAAAAAAAAAAAAAAAAAAAAAAAAAAAAAAAAAAAAAAAAAAAAAAAAAAAAAAAAAAAAAAAAAAAAAAAAAAAAAAAAAAAAAAAAAAAAAAAAAAAAAAAAAAAAAAAAAAAAAAAAAAAAAAAAAAAAAAAAAAAAAAAAAAAAAAAAAAAAAAAAAAAAAAAAAAAAAAAAAAAAAAAAAAAAAAAAAAAAAAAAAAAAAAAAAAAAAAAAAAAAAAAAAAAAAAAAAAAAAAAAAAAAAAAAAAAAAAAAAAAAAAAAAAAAAAAAAAAAAAAAAAAAAAAAAAAAAAAAAAAAAAAAAAAAAAAAAAAAAAAAAAAAAAAAAAAAAAAAAAAAAAAAAAAAAAAAAAAAAAAAAAAAAAAAAAAAAAAAAAAAAAAAAAAAAAAAAAAAAAAAAAAAAAAAAAAAAAAAAAAAAAAAAAAAAAAAAAAAAAAAAAAAAAAAAAAAAAAAAAAAAAAAAAAAAAAAAAAAAAAAAAAAAAAAAAAAAAAAAAAAAAAAAAAAAAAAAAAAAAAAAAAAAAAAAAAAAAAAAAAAAAAAAAAAAAAAAAAAAAAAAAAAAAAAAAAAAAAAAAAAAAAAAAAAAAAAAAAAAAAAAAAAAAAAAAAAAAAAAAAAAAAAAAAAAAAAAAAAAAAAAAAAAAAAAAAAAAAAAAAAAAAAAAAAAAAAAAAAAAAAAAAAAAAAAAAAAAAAAAAAAAAAAAAAAAAAAAAAAAAAAAAAAAAAAAAAAAAAAAAAAAAAAAAAAAAAAAAAAAAAAAAAAAAAAAAAAAAAAAAAAAAAAAAAAAAAAAAAAAAAAAAAAAAAAAAAAAAAAAAAAAAAAAAAAAAAAAAAAAAAAAAAAAAAAAAAAAAAAAAAAAAAAAAAAAAAAAAAAAAAAAAAAAAAAAAAAAAAAAAAAAAAAAAAAAAAAAAAAAAAAAAAAAAAAAAAAAAAAAAAAAAAAAAAAAAAAAAAAAAAAAAAAAAAAAAAAAAAAAAAAAAAAAAAAAAAAAAAAAAAAAAAAAAAAAAAAAAAAAAAAAAAAAAAAAAAAAAAAAAAAAAAAAAAAAAAAAAAAAAAAAAAAAAAAAAAAAAAAAAAAAAAAAAAAAAAAAAAAAAAAAAAAAAAAAAAAAAAAAAAAAAAAAAAAAAAAAAAAAAAAAAAAAAAAAAAAAAAAAAAAAAAAAAAAAAAAAAAAAAAAAAAAAAAAAAAAAAAAAAAAAAAAAAAAAAAAAAAAAAAAAAAAAAAAAAAAAAAAAAAAAAAAAAAAAAAAAAAAAAAAAAAAAAAAAAAAAAAAAAAAAAAAAAAAAAAAAAAAAAAAAAAAAAAAAAAAAAAAAAAAAAAAAAAAAAAAAAAAAAAAAAAAAAAAAAAAAAAAAAAAAAAAAAAAAAAAAAAAAAAAAAAAAAAAAAAAAAAAAAAAAAAAAAAAAAAAAAAAAAAAAAAAAAAAAAAAAAAAAAAAAAAAAAAAAAAAAAAAAAAAAAAAAAAAAAAAAAAAAAAAAAAAAAAAAAAAAAAAAAAAAAAAAAAAAAAAAAAAAAAAAAAAAAAAAAAAAAAAAAAAAAAAAAAAAAAAAAAAAAAAAAAAAAAAAAAAAAAAAAAAAAAAAAAAAAAAAAAAAAAAAAAAAAAAAAAAAAAAAAAAAAAAAAAAAAAAAAAAAAAAAAAAAAAAAAAAAAAAAAAAAAAAAAAAAAAAAAAAAAAAAAAAAAAAAAAAAAAAAAAAAAAAAAAAAAAAAAAAAAAAAAAAAAAAAAAAAAAAAAAAAAAAAAAAAAAAAAAAAAAAAAAAAAAAAAAAAAAAAAAAAAAAAAAAAAAAAAAAAAAAAAAAAAAAAAAAAAAAAAAAAAAAAAAAAAAAAAAAAAAAAAAAAAAAAAAAAAAAAAAAAAAAAAAAAAAAAAAAAAAAAAAAAAAAAAAAAAAAAAAAAAAAAAAAAAAAAAAAAAAAAAAAAAAAAAAAAAAAAAAAAAAAAAAAAAAAAAAAAAAAAAAAAAAAAAAAAAAAAAAAAAAAAAAAAAAAAAAAAAAAAAAAAAAAAAAAAAAAAAAAAAAAAAAAAAAAAAAAAAAAAAAAAAAAAAAAAAAAAAAAAAAAAAAAAAAAAAAAAAAAAAAAAAAAAAAAAAAAAAAAAAAAAAAAAAAAAAAAAAAAAAAAAAAAAAAAAAAAAAAAAAAAAAAAAAAAAAAAAAAAAAAAAAAAAAAAAAAAAAAAAAAAAAAAAAAAAAAAAAAAAAAAAAAAAAAAAAAAAAAAAAAAAAAAAAAAAAAAAAAAAAAAAAAAAAAAAAAAAAAAAAAAAAAAAAAAAAAAAAAAAAAAAAAAAAAAAAAAAAAAAAAAAAAAAAAAAAAAAAAAAAAAAAAAAAAAAAAAAAAAAAAAAAAAAAAAAAAAAAAAAAAAAAAAAAAAAAAAAAAAAAAAAAAAAAAAAAAAAAAAAAAAAAAAAAAAAAAAAAAAAAAAAAAAAAAAAAAAAAAAAAAAAAAAAAAAAAAAAAAAAAAAAAAAAAAAAAAAAAAAAAAAAAAAAAAAAAAAAAAAAAAAAAAAAAAAAAAAAAAAAAAAAAAAAAAAAAAAAAAAAAAAAAAAAAAAAAAAAAAAAAAAAAAAAAAAAAAAAAAAAAAAAAAAAAAAAAAAAAAAAAAAAAAAAAAAAAAAAAAAAAAAAAAAAAAAAAAAAAAAAAAAAAAAAAAAAAAAAAAAAAAAAAAAAAAAAAAAAAAAAAAAAAAAAAAAAAAAAAAAAAAAAAAAAAAAAAAAAAAAAAAAAAAAAAAAAAAAAAAAAAAAAAAAAAAAAAAAAAAAAAAAAAAAAAAAAAAAAAAAAAAAAAAAAAAAAAAAAAAAAAAAAAAAAAAAAAAAAAAAAAAAAAAAAAAAAAAAPZYQG7RLKRqYXKcQWGVToi06clikIV9w8RbnLRk6oV64NJEl/X8fAUmR26U0ZgmGOXaev3eJWckMJfjBJl1Kf0ExOI=</c2pa:manifest></metadata><title>Jaali lattice tile (seamless, 256)</title>
<g id="jaali" fill="none" stroke="#A8844A" stroke-width="1" stroke-linecap="round" stroke-linejoin="round"><path d="M19 19H45V45H19Z M32 13.62L50.38 32L32 50.38L13.62 32Z M50.38 32L64 32 M13.62 32L0 32 M32 50.38L32 64 M32 13.62L32 0 M45 45L59.76 59.76 M45 19L59.76 4.24 M19 45L4.24 59.76 M19 19L4.24 4.24 M19 83H45V109H19Z M32 77.62L50.38 96L32 114.38L13.62 96Z M50.38 96L64 96 M13.62 96L0 96 M32 114.38L32 128 M32 77.62L32 64 M45 109L59.76 123.76 M45 83L59.76 68.24 M19 109L4.24 123.76 M19 83L4.24 68.24 M19 147H45V173H19Z M32 141.62L50.38 160L32 178.38L13.62 160Z M50.38 160L64 160 M13.62 160L0 160 M32 178.38L32 192 M32 141.62L32 128 M45 173L59.76 187.76 M45 147L59.76 132.24 M19 173L4.24 187.76 M19 147L4.24 132.24 M19 211H45V237H19Z M32 205.62L50.38 224L32 242.38L13.62 224Z M50.38 224L64 224 M13.62 224L0 224 M32 242.38L32 256 M32 205.62L32 192 M45 237L59.76 251.76 M45 211L59.76 196.24 M19 237L4.24 251.76 M19 211L4.24 196.24 M83 19H109V45H83Z M96 13.62L114.38 32L96 50.38L77.62 32Z M114.38 32L128 32 M77.62 32L64 32 M96 50.38L96 64 M96 13.62L96 0 M109 45L123.76 59.76 M109 19L123.76 4.24 M83 45L68.24 59.76 M83 19L68.24 4.24 M83 83H109V109H83Z M96 77.62L114.38 96L96 114.38L77.62 96Z M114.38 96L128 96 M77.62 96L64 96 M96 114.38L96 128 M96 77.62L96 64 M109 109L123.76 123.76 M109 83L123.76 68.24 M83 109L68.24 123.76 M83 83L68.24 68.24 M83 147H109V173H83Z M96 141.62L114.38 160L96 178.38L77.62 160Z M114.38 160L128 160 M77.62 160L64 160 M96 178.38L96 192 M96 141.62L96 128 M109 173L123.76 187.76 M109 147L123.76 132.24 M83 173L68.24 187.76 M83 147L68.24 132.24 M83 211H109V237H83Z M96 205.62L114.38 224L96 242.38L77.62 224Z M114.38 224L128 224 M77.62 224L64 224 M96 242.38L96 256 M96 205.62L96 192 M109 237L123.76 251.76 M109 211L123.76 196.24 M83 237L68.24 251.76 M83 211L68.24 196.24 M147 19H173V45H147Z M160 13.62L178.38 32L160 50.38L141.62 32Z M178.38 32L192 32 M141.62 32L128 32 M160 50.38L160 64 M160 13.62L160 0 M173 45L187.76 59.76 M173 19L187.76 4.24 M147 45L132.24 59.76 M147 19L132.24 4.24 M147 83H173V109H147Z M160 77.62L178.38 96L160 114.38L141.62 96Z M178.38 96L192 96 M141.62 96L128 96 M160 114.38L160 128 M160 77.62L160 64 M173 109L187.76 123.76 M173 83L187.76 68.24 M147 109L132.24 123.76 M147 83L132.24 68.24 M147 147H173V173H147Z M160 141.62L178.38 160L160 178.38L141.62 160Z M178.38 160L192 160 M141.62 160L128 160 M160 178.38L160 192 M160 141.62L160 128 M173 173L187.76 187.76 M173 147L187.76 132.24 M147 173L132.24 187.76 M147 147L132.24 132.24 M147 211H173V237H147Z M160 205.62L178.38 224L160 242.38L141.62 224Z M178.38 224L192 224 M141.62 224L128 224 M160 242.38L160 256 M160 205.62L160 192 M173 237L187.76 251.76 M173 211L187.76 196.24 M147 237L132.24 251.76 M147 211L132.24 196.24 M211 19H237V45H211Z M224 13.62L242.38 32L224 50.38L205.62 32Z M242.38 32L256 32 M205.62 32L192 32 M224 50.38L224 64 M224 13.62L224 0 M237 45L251.76 59.76 M237 19L251.76 4.24 M211 45L196.24 59.76 M211 19L196.24 4.24 M211 83H237V109H211Z M224 77.62L242.38 96L224 114.38L205.62 96Z M242.38 96L256 96 M205.62 96L192 96 M224 114.38L224 128 M224 77.62L224 64 M237 109L251.76 123.76 M237 83L251.76 68.24 M211 109L196.24 123.76 M211 83L196.24 68.24 M211 147H237V173H211Z M224 141.62L242.38 160L224 178.38L205.62 160Z M242.38 160L256 160 M205.62 160L192 160 M224 178.38L224 192 M224 141.62L224 128 M237 173L251.76 187.76 M237 147L251.76 132.24 M211 173L196.24 187.76 M211 147L196.24 132.24 M211 211H237V237H211Z M224 205.62L242.38 224L224 242.38L205.62 224Z M242.38 224L256 224 M205.62 224L192 224 M224 242.38L224 256 M224 205.62L224 192 M237 237L251.76 251.76 M237 211L251.76 196.24 M211 237L196.24 251.76 M211 211L196.24 196.24"/><circle cx="0" cy="0" r="6"/><circle cx="0" cy="64" r="6"/><circle cx="0" cy="128" r="6"/><circle cx="0" cy="192" r="6"/><circle cx="0" cy="256" r="6"/><circle cx="64" cy="0" r="6"/><circle cx="64" cy="64" r="6"/><circle cx="64" cy="128" r="6"/><circle cx="64" cy="192" r="6"/><circle cx="64" cy="256" r="6"/><circle cx="128" cy="0" r="6"/><circle cx="128" cy="64" r="6"/><circle cx="128" cy="128" r="6"/><circle cx="128" cy="192" r="6"/><circle cx="128" cy="256" r="6"/><circle cx="192" cy="0" r="6"/><circle cx="192" cy="64" r="6"/><circle cx="192" cy="128" r="6"/><circle cx="192" cy="192" r="6"/><circle cx="192" cy="256" r="6"/><circle cx="256" cy="0" r="6"/><circle cx="256" cy="64" r="6"/><circle cx="256" cy="128" r="6"/><circle cx="256" cy="192" r="6"/><circle cx="256" cy="256" r="6"/></g>
</svg>
